<mxfile host="app.diagrams.net" modified="2023-07-30T05:42:44.796Z" agent="Mozilla/5.0 (Macintosh; Intel Mac OS X 10_15_7) AppleWebKit/537.36 (KHTML, like Gecko) Chrome/115.0.0.0 Safari/537.36" etag="hcbyqmaidPKOIMc-NadT" version="21.6.6" type="device">
  <diagram name="Page-1" id="U8L6Ct9327_TyQOc_Fr2">
    <mxGraphModel dx="1528" dy="934" grid="1" gridSize="10" guides="1" tooltips="1" connect="1" arrows="1" fold="1" page="1" pageScale="1" pageWidth="850" pageHeight="1100" math="1" shadow="0">
      <root>
        <mxCell id="0" />
        <mxCell id="1" parent="0" />
        <mxCell id="kqlzSv5HVFILB_-UJA2h-11" value="" style="group" vertex="1" connectable="0" parent="1">
          <mxGeometry x="140" y="90" width="220" height="173" as="geometry" />
        </mxCell>
        <mxCell id="kqlzSv5HVFILB_-UJA2h-1" value="" style="verticalLabelPosition=bottom;shadow=0;dashed=0;align=center;html=1;verticalAlign=top;shape=mxgraph.electrical.logic_gates.logic_gate;operation=or;negating=1;negSize=0.15;" vertex="1" parent="kqlzSv5HVFILB_-UJA2h-11">
          <mxGeometry x="60" width="100" height="60" as="geometry" />
        </mxCell>
        <mxCell id="kqlzSv5HVFILB_-UJA2h-10" style="rounded=0;orthogonalLoop=1;jettySize=auto;html=1;exitX=1;exitY=0.5;exitDx=0;exitDy=0;exitPerimeter=0;entryX=0;entryY=0.75;entryDx=0;entryDy=0;entryPerimeter=0;endArrow=none;endFill=0;" edge="1" parent="kqlzSv5HVFILB_-UJA2h-11" source="kqlzSv5HVFILB_-UJA2h-2" target="kqlzSv5HVFILB_-UJA2h-1">
          <mxGeometry relative="1" as="geometry" />
        </mxCell>
        <mxCell id="kqlzSv5HVFILB_-UJA2h-2" value="" style="verticalLabelPosition=bottom;shadow=0;dashed=0;align=center;html=1;verticalAlign=top;shape=mxgraph.electrical.logic_gates.logic_gate;operation=or;negating=1;negSize=0.15;" vertex="1" parent="kqlzSv5HVFILB_-UJA2h-11">
          <mxGeometry x="60" y="113" width="100" height="60" as="geometry" />
        </mxCell>
        <mxCell id="kqlzSv5HVFILB_-UJA2h-8" style="rounded=0;orthogonalLoop=1;jettySize=auto;html=1;exitX=1;exitY=0.5;exitDx=0;exitDy=0;exitPerimeter=0;entryX=0;entryY=0.25;entryDx=0;entryDy=0;entryPerimeter=0;endArrow=none;endFill=0;" edge="1" parent="kqlzSv5HVFILB_-UJA2h-11" source="kqlzSv5HVFILB_-UJA2h-1" target="kqlzSv5HVFILB_-UJA2h-2">
          <mxGeometry relative="1" as="geometry" />
        </mxCell>
        <mxCell id="kqlzSv5HVFILB_-UJA2h-3" value="$$R$$" style="text;html=1;strokeColor=none;fillColor=none;align=center;verticalAlign=middle;whiteSpace=wrap;rounded=0;" vertex="1" parent="kqlzSv5HVFILB_-UJA2h-11">
          <mxGeometry width="60" height="30" as="geometry" />
        </mxCell>
        <mxCell id="kqlzSv5HVFILB_-UJA2h-4" value="$$S$$" style="text;html=1;strokeColor=none;fillColor=none;align=center;verticalAlign=middle;whiteSpace=wrap;rounded=0;" vertex="1" parent="kqlzSv5HVFILB_-UJA2h-11">
          <mxGeometry y="143" width="60" height="30" as="geometry" />
        </mxCell>
        <mxCell id="kqlzSv5HVFILB_-UJA2h-5" value="$$Q$$" style="text;html=1;strokeColor=none;fillColor=none;align=center;verticalAlign=middle;whiteSpace=wrap;rounded=0;" vertex="1" parent="kqlzSv5HVFILB_-UJA2h-11">
          <mxGeometry x="160" y="15" width="60" height="30" as="geometry" />
        </mxCell>
        <mxCell id="kqlzSv5HVFILB_-UJA2h-6" value="$$\overline{Q}$$" style="text;html=1;strokeColor=none;fillColor=none;align=center;verticalAlign=middle;whiteSpace=wrap;rounded=0;" vertex="1" parent="kqlzSv5HVFILB_-UJA2h-11">
          <mxGeometry x="160" y="120.5" width="60" height="45" as="geometry" />
        </mxCell>
      </root>
    </mxGraphModel>
  </diagram>
</mxfile>
